<?xml version="1.0" standalone="no"?>
<!DOCTYPE svg PUBLIC "-//W3C//DTD SVG 20010904//EN"
 "http://www.w3.org/TR/2001/REC-SVG-20010904/DTD/svg10.dtd">
<svg version="1.0" xmlns="http://www.w3.org/2000/svg"
 width="700.000000pt" height="700.000000pt" viewBox="0 0 700.000000 700.000000"
 preserveAspectRatio="xMidYMid meet">
<metadata>
Created by potrace 1.11, written by Peter Selinger 2001-2013
</metadata>
<g transform="translate(0.000000,700.000000) scale(0.100000,-0.100000)"
fill="#000000" stroke="none">
<path d="M575 6984 c-138 -33 -255 -96 -350 -189 -105 -102 -173 -222 -206
-364 -18 -73 -18 -209 -16 -2956 2 -2656 4 -2884 19 -2933 84 -269 278 -455
543 -522 79 -19 112 -20 2930 -20 3086 0 2906 -3 3045 53 91 37 165 85 234
152 103 99 168 212 205 355 19 73 19 144 20 2935 0 2805 0 2862 -19 2943 -59
248 -254 458 -492 528 -28 9 -61 19 -72 22 -12 4 -1317 8 -2901 9 -2475 1
-2888 -1 -2940 -13z m2780 -1809 l0 -1530 -1533 0 -1532 0 0 1336 c0 1162 2
1343 15 1394 40 153 150 267 303 315 54 17 135 18 1402 16 l1344 -1 1 -1530z
m3000 1524 c117 -22 241 -113 297 -216 60 -111 58 -45 55 -1504 l-2 -1333
-1520 -1 c-836 0 -1524 -3 -1530 -7 -7 -4 -10 508 -9 1530 1 846 2 1538 3
1540 3 8 2663 0 2706 -9z m-3000 -4869 l0 -1539 -1338 1 c-795 0 -1355 4
-1380 10 -116 26 -235 115 -290 217 -58 105 -55 41 -56 1490 -1 777 -5 1337
-10 1340 -5 4 681 6 1526 5 844 0 1536 3 1539 8 3 4 6 8 7 8 1 0 2 -693 2
-1540z m3353 165 l-3 -1360 -22 -54 c-59 -143 -180 -249 -321 -280 -48 -10
-2711 -13 -2713 -3 -5 32 -2 3048 3 3052 3 3 693 5 1532 5 l1527 0 -3 -1360z"/>
<path d="M1673 5810 c-63 -38 -67 -59 -68 -320 l-1 -235 -244 -5 c-169 -3
-252 -9 -267 -17 -65 -38 -91 -150 -47 -210 43 -59 71 -65 327 -66 l232 -2 0
-240 c0 -237 1 -241 24 -274 65 -91 197 -83 247 15 18 37 20 57 20 271 l-1
231 237 1 c262 0 276 3 320 63 30 43 31 125 2 164 -44 60 -66 64 -321 64 -128
0 -234 3 -234 8 -1 4 -2 111 -3 237 -2 255 -6 272 -65 312 -43 29 -113 31
-158 3z"/>
<path d="M4590 5227 c-96 -65 -89 -200 13 -250 34 -17 77 -18 652 -18 577 0
618 1 647 18 52 30 73 68 73 127 -1 62 -27 105 -79 130 -31 15 -100 16 -654
16 l-620 -1 -32 -22z"/>
<path d="M1245 2314 c-57 -29 -88 -102 -70 -171 4 -18 72 -94 188 -211 l182
-182 -177 -178 c-97 -97 -181 -187 -187 -199 -27 -53 -4 -141 46 -177 35 -26
112 -33 149 -13 16 9 107 94 201 189 l172 174 173 -174 c95 -95 186 -180 202
-189 37 -20 114 -13 149 13 55 41 74 123 43 182 -8 15 -93 105 -188 200 l-174
173 174 172 c95 94 181 185 189 202 30 56 9 140 -43 179 -30 21 -91 31 -131
21 -18 -4 -94 -72 -211 -188 l-182 -182 -178 177 c-97 97 -187 181 -199 187
-31 15 -93 13 -128 -5z"/>
<path d="M4639 2328 c-137 -24 -159 -220 -31 -271 32 -13 126 -15 637 -15 610
-1 648 1 686 37 24 23 49 76 49 105 0 64 -52 132 -109 143 -49 9 -1178 10
-1232 1z"/>
<path d="M4596 1437 c-100 -57 -97 -200 6 -253 26 -13 110 -15 649 -16 585 0
620 1 650 18 52 31 74 68 73 127 0 57 -19 95 -62 124 -25 17 -66 18 -652 20
l-625 3 -39 -23z"/>
</g>
</svg>
